<svg xmlns="http://www.w3.org/2000/svg" xmlns:xlink="http://www.w3.org/1999/xlink" width="1180" zoomAndPan="magnify" viewBox="0 0 884.88 135.000003" height="180" preserveAspectRatio="xMidYMid meet" version="1.0"><defs><g/><clipPath id="cfe1179286"><path d="M 542.992188 20.265625 L 877.519531 20.265625 L 877.519531 113.988281 L 542.992188 113.988281 Z M 542.992188 20.265625 " clip-rule="nonzero"/></clipPath></defs><g clip-path="url(#cfe1179286)"><path fill="#040606" d="M 856.375 58.664062 C 850.136719 58.753906 844.285156 61.824219 840.691406 66.949219 C 832.019531 79.222656 832.972656 95.875 842.949219 107.105469 C 802.945312 105.167969 762.824219 106.152344 722.9375 110.023438 C 729.054688 104.574219 735.886719 99.984375 743.222656 96.351562 C 769.03125 95.636719 794.867188 96.292969 820.644531 98.316406 C 794.628906 94.058594 768.316406 92.449219 742.003906 93.519531 C 731.492188 98.765625 721.929688 105.675781 713.671875 113.988281 C 758.871094 108.742188 804.402344 107.105469 849.871094 109.070312 C 837.070312 99.71875 834.128906 81.785156 843.277344 68.824219 C 848.472656 61.40625 858.691406 59.648438 866.054688 64.863281 C 868.3125 66.472656 870.125 68.585938 871.3125 71.089844 C 876.210938 84.195312 873.894531 98.914062 865.222656 109.875 C 877.222656 100.222656 880.964844 83.511719 874.191406 69.660156 C 870.898438 62.867188 863.945312 58.578125 856.402344 58.664062 Z M 693.121094 55.953125 C 684.894531 55.953125 677.082031 59.648438 671.855469 66.023438 C 661.34375 78.476562 660.09375 96.351562 668.828125 110.144531 C 660.09375 110.261719 651.480469 108.058594 643.878906 103.796875 L 614.597656 84.496094 C 607.765625 79.550781 599.628906 76.71875 591.195312 76.421875 L 544.269531 75.527344 C 543.050781 78.507812 543.410156 81.871094 545.21875 84.496094 C 550.148438 91.078125 556.269531 96.648438 563.246094 100.9375 C 564.613281 101.832031 565.710938 103.082031 566.425781 104.574219 L 542.992188 105.585938 L 570.257812 106.121094 C 569.664062 102.84375 567.730469 99.984375 564.941406 98.226562 C 558.316406 94.144531 552.496094 88.84375 547.832031 82.617188 C 547.0625 81.515625 546.675781 80.144531 546.765625 78.804688 L 591.105469 79.636719 C 598.886719 79.90625 606.429688 82.527344 612.753906 87.144531 L 642.1875 106.539062 C 651.632812 111.871094 662.5 114.164062 673.28125 113.09375 C 661.640625 97.453125 664.847656 75.289062 680.46875 63.609375 C 681.566406 62.777344 682.695312 62.03125 683.882812 61.347656 C 697.335938 56.492188 712.128906 63.523438 716.96875 77.015625 C 717.175781 77.671875 717.414062 78.355469 717.589844 79.042969 C 719.226562 84.734375 719.671875 90.75 718.867188 96.648438 C 724.066406 83.390625 719.460938 68.316406 707.792969 60.214844 L 707.761719 60.214844 C 703.394531 57.445312 698.316406 55.984375 693.121094 55.953125 Z M 564.882812 49.519531 C 557.574219 49.550781 550.300781 49.640625 543.023438 49.847656 C 576.195312 52.199219 609.429688 54.136719 642.660156 55.597656 C 642.484375 57.296875 641.296875 58.695312 639.691406 59.203125 C 630.515625 62.089844 620.832031 62.894531 611.300781 61.644531 C 588.550781 60.125 565.710938 60.421875 542.992188 62.566406 C 565.683594 62.179688 588.371094 62.925781 610.972656 64.832031 C 620.921875 66.144531 631.050781 65.277344 640.640625 62.269531 C 643.703125 61.316406 645.808594 58.488281 645.871094 55.269531 L 645.871094 52.648438 C 618.902344 50.503906 591.878906 49.460938 564.820312 49.519531 Z M 715.097656 29.320312 C 682.339844 29.203125 649.761719 33.820312 618.308594 43.054688 C 660.957031 41.507812 703.632812 44.933594 745.480469 53.214844 C 774.761719 60.632812 805.410156 60.898438 834.84375 54.046875 C 846.691406 51.695312 859.015625 54.496094 868.730469 61.734375 C 857.324219 51.21875 841.257812 47.492188 826.4375 51.960938 C 826.082031 52.050781 825.726562 52.140625 825.367188 52.199219 L 825.339844 52.199219 C 799.648438 57.207031 773.21875 56.757812 747.707031 50.890625 C 713.195312 43.710938 678.0625 40.015625 642.839844 39.835938 C 667.875 33.492188 693.535156 29.976562 719.34375 29.382812 C 717.917969 29.351562 716.492188 29.320312 715.066406 29.320312 Z M 711.265625 20.296875 C 700.605469 20.355469 690 21.308594 679.488281 23.09375 C 634.167969 31.464844 588.667969 38.882812 543.023438 45.320312 C 563.839844 45.558594 584.660156 43.980469 605.210938 40.613281 C 630.308594 34.117188 655.757812 29.203125 681.449219 25.867188 C 725.550781 19.519531 770.515625 26.757812 810.398438 46.601562 C 780.257812 29.171875 746.042969 20.085938 711.265625 20.296875 " fill-opacity="1" fill-rule="nonzero"/></g><g fill="#000000" fill-opacity="1"><g transform="translate(16.594402, 102.238549)"><g><path d="M 31.359375 -44.9375 C 29.554688 -44.9375 27.941406 -44.554688 26.515625 -43.796875 C 25.097656 -43.035156 23.882812 -41.929688 22.875 -40.484375 C 21.863281 -39.035156 21.09375 -37.269531 20.5625 -35.1875 C 20.039062 -33.101562 19.78125 -30.742188 19.78125 -28.109375 C 19.78125 -24.546875 20.226562 -21.546875 21.125 -19.109375 C 22.03125 -16.679688 23.40625 -14.847656 25.25 -13.609375 C 27.101562 -12.367188 29.425781 -11.75 32.21875 -11.75 C 34.75 -11.75 37.179688 -12.097656 39.515625 -12.796875 C 41.859375 -13.492188 44.222656 -14.332031 46.609375 -15.3125 L 46.609375 -2.359375 C 44.097656 -1.253906 41.53125 -0.457031 38.90625 0.03125 C 36.28125 0.53125 33.492188 0.78125 30.546875 0.78125 C 24.398438 0.78125 19.367188 -0.4375 15.453125 -2.875 C 11.535156 -5.320312 8.648438 -8.71875 6.796875 -13.0625 C 4.953125 -17.40625 4.03125 -22.445312 4.03125 -28.1875 C 4.03125 -32.476562 4.628906 -36.40625 5.828125 -39.96875 C 7.035156 -43.539062 8.800781 -46.640625 11.125 -49.265625 C 13.457031 -51.890625 16.332031 -53.914062 19.75 -55.34375 C 23.175781 -56.78125 27.097656 -57.5 31.515625 -57.5 C 34.253906 -57.5 37.144531 -57.179688 40.1875 -56.546875 C 43.226562 -55.910156 46.195312 -54.894531 49.09375 -53.5 L 44.390625 -41.453125 C 42.328125 -42.429688 40.234375 -43.253906 38.109375 -43.921875 C 35.992188 -44.597656 33.742188 -44.9375 31.359375 -44.9375 Z M 31.359375 -44.9375 "/></g></g></g><g fill="#000000" fill-opacity="1"><g transform="translate(74.315844, 102.238549)"><g><path d="M 40.90625 0 L 38.109375 -10.625 L 19.703125 -10.625 L 16.828125 0 L 0 0 L 18.5 -56.921875 L 38.921875 -56.921875 L 57.65625 0 Z M 34.9375 -23.1875 L 32.484375 -32.484375 C 32.234375 -33.492188 31.859375 -34.9375 31.359375 -36.8125 C 30.867188 -38.6875 30.382812 -40.625 29.90625 -42.625 C 29.4375 -44.632812 29.070312 -46.285156 28.8125 -47.578125 C 28.570312 -46.285156 28.238281 -44.6875 27.8125 -42.78125 C 27.382812 -40.882812 26.945312 -39.003906 26.5 -37.140625 C 26.050781 -35.285156 25.65625 -33.734375 25.3125 -32.484375 L 22.875 -23.1875 Z M 34.9375 -23.1875 "/></g></g></g><g fill="#000000" fill-opacity="1"><g transform="translate(138.163182, 102.238549)"><g><path d="M 24.703125 -56.6875 C 29.835938 -56.6875 34.113281 -56.054688 37.53125 -54.796875 C 40.945312 -53.546875 43.515625 -51.679688 45.234375 -49.203125 C 46.953125 -46.722656 47.8125 -43.632812 47.8125 -39.9375 C 47.8125 -37.632812 47.421875 -35.539062 46.640625 -33.65625 C 45.867188 -31.769531 44.765625 -30.082031 43.328125 -28.59375 C 41.890625 -27.101562 40.175781 -25.804688 38.1875 -24.703125 L 54.703125 0 L 37.34375 0 L 25.3125 -20.625 L 21.4375 -20.625 L 21.4375 0 L 6.125 0 L 6.125 -56.6875 Z M 24.46875 -45.09375 L 21.4375 -45.09375 L 21.4375 -32.140625 L 24.3125 -32.140625 C 26.664062 -32.140625 28.59375 -32.65625 30.09375 -33.6875 C 31.59375 -34.726562 32.34375 -36.578125 32.34375 -39.234375 C 32.34375 -41.066406 31.71875 -42.5 30.46875 -43.53125 C 29.226562 -44.570312 27.226562 -45.09375 24.46875 -45.09375 Z M 24.46875 -45.09375 "/></g></g></g><g fill="#000000" fill-opacity="1"><g transform="translate(198.094599, 102.238549)"><g/></g></g><g fill="#000000" fill-opacity="1"><g transform="translate(224.915165, 102.238549)"><g><path d="M 54.703125 0 L 39.3125 0 L 39.3125 -23.109375 L 21.515625 -23.109375 L 21.515625 0 L 6.125 0 L 6.125 -56.6875 L 21.515625 -56.6875 L 21.515625 -35.671875 L 39.3125 -35.671875 L 39.3125 -56.6875 L 54.703125 -56.6875 Z M 54.703125 0 "/></g></g></g><g fill="#000000" fill-opacity="1"><g transform="translate(291.941764, 102.238549)"><g><path d="M 40.90625 0 L 38.109375 -10.625 L 19.703125 -10.625 L 16.828125 0 L 0 0 L 18.5 -56.921875 L 38.921875 -56.921875 L 57.65625 0 Z M 34.9375 -23.1875 L 32.484375 -32.484375 C 32.234375 -33.492188 31.859375 -34.9375 31.359375 -36.8125 C 30.867188 -38.6875 30.382812 -40.625 29.90625 -42.625 C 29.4375 -44.632812 29.070312 -46.285156 28.8125 -47.578125 C 28.570312 -46.285156 28.238281 -44.6875 27.8125 -42.78125 C 27.382812 -40.882812 26.945312 -39.003906 26.5 -37.140625 C 26.050781 -35.285156 25.65625 -33.734375 25.3125 -32.484375 L 22.875 -23.1875 Z M 34.9375 -23.1875 "/></g></g></g><g fill="#000000" fill-opacity="1"><g transform="translate(355.789102, 102.238549)"><g><path d="M 55.09375 -56.6875 L 36.53125 0 L 18.5 0 L 0 -56.6875 L 17.21875 -56.6875 L 24.9375 -27.953125 C 25.21875 -26.867188 25.546875 -25.476562 25.921875 -23.78125 C 26.296875 -22.09375 26.644531 -20.40625 26.96875 -18.71875 C 27.289062 -17.039062 27.488281 -15.675781 27.5625 -14.625 C 27.664062 -15.675781 27.859375 -17.03125 28.140625 -18.6875 C 28.429688 -20.34375 28.75 -22.003906 29.09375 -23.671875 C 29.445312 -25.335938 29.78125 -26.710938 30.09375 -27.796875 L 37.953125 -56.6875 Z M 55.09375 -56.6875 "/></g></g></g><g fill="#000000" fill-opacity="1"><g transform="translate(417.077498, 102.238549)"><g><path d="M 39.78125 0 L 6.125 0 L 6.125 -56.6875 L 39.78125 -56.6875 L 39.78125 -44.390625 L 21.4375 -44.390625 L 21.4375 -35.484375 L 38.421875 -35.484375 L 38.421875 -23.1875 L 21.4375 -23.1875 L 21.4375 -12.484375 L 39.78125 -12.484375 Z M 39.78125 0 "/></g></g></g><g fill="#000000" fill-opacity="1"><g transform="translate(466.850774, 102.238549)"><g><path d="M 60.09375 0 L 40.015625 0 L 19.3125 -39.9375 L 18.953125 -39.9375 C 19.085938 -38.71875 19.207031 -37.253906 19.3125 -35.546875 C 19.414062 -33.847656 19.503906 -32.113281 19.578125 -30.34375 C 19.660156 -28.570312 19.703125 -26.972656 19.703125 -25.546875 L 19.703125 0 L 6.125 0 L 6.125 -56.6875 L 26.125 -56.6875 L 46.765625 -17.296875 L 47 -17.296875 C 46.914062 -18.535156 46.832031 -19.972656 46.75 -21.609375 C 46.675781 -23.253906 46.609375 -24.914062 46.546875 -26.59375 C 46.484375 -28.28125 46.453125 -29.769531 46.453125 -31.0625 L 46.453125 -56.6875 L 60.09375 -56.6875 Z M 60.09375 0 "/></g></g></g></svg>